<svg width="26" height="20" viewBox="0 0 26 20" fill="none" xmlns="http://www.w3.org/2000/svg">
<path d="M23.8305 4.27554C23.7037 3.76391 23.4455 3.29513 23.0819 2.91656C22.7183 2.53798 22.2622 2.26302 21.7598 2.11944C19.9238 1.66666 12.5802 1.66666 12.5802 1.66666C12.5802 1.66666 5.2365 1.66666 3.40059 2.16256C2.89811 2.30614 2.44204 2.5811 2.07846 2.95968C1.71487 3.33825 1.45664 3.80703 1.32985 4.31866C0.993845 6.20046 0.829489 8.10942 0.838844 10.0216C0.826867 11.9481 0.991233 13.8716 1.32985 15.7676C1.46963 16.2633 1.73365 16.7142 2.09639 17.0768C2.45913 17.4394 2.90833 17.7014 3.40059 17.8374C5.2365 18.3333 12.5802 18.3333 12.5802 18.3333C12.5802 18.3333 19.9238 18.3333 21.7598 17.8374C22.2622 17.6938 22.7183 17.4189 23.0819 17.0403C23.4455 16.6617 23.7037 16.193 23.8305 15.6813C24.1639 13.8137 24.3282 11.9193 24.3215 10.0216C24.3335 8.09503 24.1691 6.17151 23.8305 4.27554V4.27554Z" stroke="white" stroke-linecap="round" stroke-linejoin="round"/>
<path d="M10.0645 13.3333L16.7742 9.99999L10.0645 6.66666V13.3333Z" stroke="white" stroke-linecap="round" stroke-linejoin="round"/>
</svg>
